<svg id="Layer_1" data-name="Layer 1" xmlns="http://www.w3.org/2000/svg" viewBox="0 0 311 311"><defs><style>.cls-1{fill:#fff;}</style></defs><title>camera-retro-solid</title><circle cx="155.5" cy="155.5" r="155.5"/><path class="cls-1" d="M191.75,165A15.75,15.75,0,0,0,176,180.75v115.5A15.75,15.75,0,0,0,191.75,312h136.5A15.75,15.75,0,0,0,344,296.25V180.75A15.75,15.75,0,0,0,328.25,165Zm0,10.5h34.78a2,2,0,0,1,2,2V184a2,2,0,0,1-2,2H188.47a2,2,0,0,1-2-2v-3.28A5.27,5.27,0,0,1,191.75,175.5ZM331.53,207H188.47a2,2,0,0,1-2-2V193.22a2,2,0,0,1,2-2h45.28l9.91-14.86a2,2,0,0,1,1.64-.89h83a5.27,5.27,0,0,1,5.25,5.25V205A2,2,0,0,1,331.53,207ZM260,293.63a39.38,39.38,0,1,1,39.38-39.37A39.41,39.41,0,0,1,260,293.63Zm0-68.25a28.88,28.88,0,1,0,28.88,28.88A28.92,28.92,0,0,0,260,225.38ZM244.25,259.5a5.27,5.27,0,0,1-5.25-5.25,21,21,0,0,1,21-21,5.25,5.25,0,0,1,0,10.5,10.53,10.53,0,0,0-10.5,10.5A5.27,5.27,0,0,1,244.25,259.5Z" transform="translate(-106 -85)"/></svg>